<svg width="1883" height="394" viewBox="0 0 1883 394" fill="none" xmlns="http://www.w3.org/2000/svg">
<path d="M571 236.36C556.814 236.36 544.96 233.84 535.44 228.8C525.92 223.76 518.734 216.013 513.88 205.56C509.027 194.92 506.32 181.2 505.76 164.4L548.6 157.96C548.787 167.667 549.627 175.507 551.12 181.48C552.8 187.453 555.04 191.747 557.84 194.36C560.827 196.973 564.374 198.28 568.48 198.28C573.707 198.28 577.067 196.507 578.56 192.96C580.24 189.413 581.08 185.68 581.08 181.76C581.08 172.427 578.84 164.587 574.36 158.24C569.88 151.707 563.814 145.173 556.16 138.64L536.56 121.56C527.974 114.28 520.694 106.067 514.72 96.92C508.934 87.5867 506.04 76.1067 506.04 62.48C506.04 43.2533 511.734 28.6 523.12 18.52C534.507 8.25332 550 3.11999 569.6 3.11999C581.734 3.11999 591.44 5.17332 598.72 9.27999C606.187 13.3867 611.787 18.8 615.52 25.52C619.44 32.0533 622.054 39.0533 623.36 46.52C624.854 53.8 625.694 60.8 625.88 67.52L582.76 72.84C582.574 66.12 582.107 60.3333 581.36 55.48C580.8 50.44 579.494 46.6133 577.44 44C575.387 41.2 572.214 39.8 567.92 39.8C563.254 39.8 559.8 41.76 557.56 45.68C555.507 49.6 554.48 53.52 554.48 57.44C554.48 65.84 556.44 72.7467 560.36 78.16C564.467 83.3867 569.787 88.8933 576.32 94.68L595.08 111.2C604.974 119.6 613.28 129.12 620 139.76C626.907 150.4 630.36 163.56 630.36 179.24C630.36 189.88 627.934 199.587 623.08 208.36C618.227 216.947 611.32 223.76 602.36 228.8C593.587 233.84 583.134 236.36 571 236.36ZM655.521 233L698.361 6.19998H755.481L797.761 233H751.561L744.001 185.12H710.681L702.841 233H655.521ZM715.161 155.16H739.241L727.201 66.68L715.161 155.16ZM856.15 233L815.27 6.19998H858.11L882.47 160.2L905.15 6.19998H950.51L909.07 233H856.15ZM987.293 233V6.19998H1089.21V40.36H1037.41V96.64H1076.89V131.36H1037.41V199.12H1089.77V233H987.293ZM1212.17 233V6.19998H1262.29V199.12H1314.37V233H1212.17ZM1350.59 233V6.19998H1400.71V233H1350.59ZM1478.77 233L1437.89 6.19998H1480.73L1505.09 160.2L1527.77 6.19998H1573.13L1531.69 233H1478.77ZM1609.91 233V6.19998H1711.83V40.36H1660.03V96.64H1699.51V131.36H1660.03V199.12H1712.39V233H1609.91ZM1809.34 236.36C1795.16 236.36 1783.3 233.84 1773.78 228.8C1764.26 223.76 1757.08 216.013 1752.22 205.56C1747.37 194.92 1744.66 181.2 1744.1 164.4L1786.94 157.96C1787.13 167.667 1787.97 175.507 1789.46 181.48C1791.14 187.453 1793.38 191.747 1796.18 194.36C1799.17 196.973 1802.72 198.28 1806.82 198.28C1812.05 198.28 1815.41 196.507 1816.9 192.96C1818.58 189.413 1819.42 185.68 1819.42 181.76C1819.42 172.427 1817.18 164.587 1812.7 158.24C1808.22 151.707 1802.16 145.173 1794.5 138.64L1774.9 121.56C1766.32 114.28 1759.04 106.067 1753.06 96.92C1747.28 87.5867 1744.38 76.1067 1744.38 62.48C1744.38 43.2533 1750.08 28.6 1761.46 18.52C1772.85 8.25332 1788.34 3.11999 1807.94 3.11999C1820.08 3.11999 1829.78 5.17332 1837.06 9.27999C1844.53 13.3867 1850.13 18.8 1853.86 25.52C1857.78 32.0533 1860.4 39.0533 1861.7 46.52C1863.2 53.8 1864.04 60.8 1864.22 67.52L1821.1 72.84C1820.92 66.12 1820.45 60.3333 1819.7 55.48C1819.14 50.44 1817.84 46.6133 1815.78 44C1813.73 41.2 1810.56 39.8 1806.26 39.8C1801.6 39.8 1798.14 41.76 1795.9 45.68C1793.85 49.6 1792.82 53.52 1792.82 57.44C1792.82 65.84 1794.78 72.7467 1798.7 78.16C1802.81 83.3867 1808.13 88.8933 1814.66 94.68L1833.42 111.2C1843.32 119.6 1851.62 129.12 1858.34 139.76C1865.25 150.4 1868.7 163.56 1868.7 179.24C1868.7 189.88 1866.28 199.587 1861.42 208.36C1856.57 216.947 1849.66 223.76 1840.7 228.8C1831.93 233.84 1821.48 236.36 1809.34 236.36Z" fill="white"/>
<path d="M570.25 354.85C570.25 360.15 569.367 365.017 567.6 369.45C565.834 373.883 563.35 377.7 560.15 380.9C556.95 384.1 553.1 386.583 548.6 388.35C544.1 390.117 539.1 391 533.6 391H506.05V318.7H533.6C539.1 318.7 544.1 319.6 548.6 321.4C553.1 323.167 556.95 325.65 560.15 328.85C563.35 332.017 565.834 335.817 567.6 340.25C569.367 344.683 570.25 349.55 570.25 354.85ZM556.45 354.85C556.45 350.883 555.917 347.333 554.85 344.2C553.817 341.033 552.3 338.367 550.3 336.2C548.334 334 545.934 332.317 543.1 331.15C540.3 329.983 537.134 329.4 533.6 329.4H519.55V380.3H533.6C537.134 380.3 540.3 379.717 543.1 378.55C545.934 377.383 548.334 375.717 550.3 373.55C552.3 371.35 553.817 368.683 554.85 365.55C555.917 362.383 556.45 358.817 556.45 354.85ZM662.075 354.85C662.075 360.15 661.191 365.067 659.425 369.6C657.691 374.1 655.225 378 652.025 381.3C648.825 384.6 644.975 387.183 640.475 389.05C635.975 390.883 630.975 391.8 625.475 391.8C620.008 391.8 615.025 390.883 610.525 389.05C606.025 387.183 602.158 384.6 598.925 381.3C595.725 378 593.241 374.1 591.475 369.6C589.708 365.067 588.825 360.15 588.825 354.85C588.825 349.55 589.708 344.65 591.475 340.15C593.241 335.617 595.725 331.7 598.925 328.4C602.158 325.1 606.025 322.533 610.525 320.7C615.025 318.833 620.008 317.9 625.475 317.9C629.141 317.9 632.591 318.333 635.825 319.2C639.058 320.033 642.025 321.233 644.725 322.8C647.425 324.333 649.841 326.217 651.975 328.45C654.141 330.65 655.975 333.117 657.475 335.85C658.975 338.583 660.108 341.55 660.875 344.75C661.675 347.95 662.075 351.317 662.075 354.85ZM648.325 354.85C648.325 350.883 647.791 347.333 646.725 344.2C645.658 341.033 644.141 338.35 642.175 336.15C640.208 333.95 637.808 332.267 634.975 331.1C632.175 329.933 629.008 329.35 625.475 329.35C621.941 329.35 618.758 329.933 615.925 331.1C613.125 332.267 610.725 333.95 608.725 336.15C606.758 338.35 605.241 341.033 604.175 344.2C603.108 347.333 602.575 350.883 602.575 354.85C602.575 358.817 603.108 362.383 604.175 365.55C605.241 368.683 606.758 371.35 608.725 373.55C610.725 375.717 613.125 377.383 615.925 378.55C618.758 379.717 621.941 380.3 625.475 380.3C629.008 380.3 632.175 379.717 634.975 378.55C637.808 377.383 640.208 375.717 642.175 373.55C644.141 371.35 645.658 368.683 646.725 365.55C647.791 362.383 648.325 358.817 648.325 354.85ZM745.836 318.7V391H738.936C737.87 391 736.97 390.833 736.236 390.5C735.536 390.133 734.853 389.533 734.186 388.7L696.436 340.5C696.636 342.7 696.736 344.733 696.736 346.6V391H684.886V318.7H691.936C692.503 318.7 692.986 318.733 693.386 318.8C693.82 318.833 694.186 318.933 694.486 319.1C694.82 319.233 695.136 319.45 695.436 319.75C695.736 320.017 696.07 320.383 696.436 320.85L734.336 369.25C734.236 368.083 734.153 366.933 734.086 365.8C734.02 364.667 733.986 363.617 733.986 362.65V318.7H745.836ZM811.137 363.7L802.337 339.65C801.904 338.583 801.454 337.317 800.987 335.85C800.521 334.383 800.054 332.8 799.587 331.1C799.154 332.8 798.704 334.4 798.237 335.9C797.771 337.367 797.321 338.65 796.887 339.75L788.137 363.7H811.137ZM834.887 391H824.487C823.321 391 822.371 390.717 821.637 390.15C820.904 389.55 820.354 388.817 819.987 387.95L814.587 373.2H784.637L779.237 387.95C778.971 388.717 778.454 389.417 777.687 390.05C776.921 390.683 775.971 391 774.837 391H764.337L792.787 318.7H806.487L834.887 391ZM896.84 329.75H875.04V391H861.59V329.75H839.79V318.7H896.84V329.75ZM930.8 391H917.3V318.7H930.8V391ZM1026.94 354.85C1026.94 360.15 1026.05 365.067 1024.29 369.6C1022.55 374.1 1020.09 378 1016.89 381.3C1013.69 384.6 1009.84 387.183 1005.34 389.05C1000.84 390.883 995.838 391.8 990.338 391.8C984.871 391.8 979.888 390.883 975.388 389.05C970.888 387.183 967.021 384.6 963.788 381.3C960.588 378 958.105 374.1 956.338 369.6C954.571 365.067 953.688 360.15 953.688 354.85C953.688 349.55 954.571 344.65 956.338 340.15C958.105 335.617 960.588 331.7 963.788 328.4C967.021 325.1 970.888 322.533 975.388 320.7C979.888 318.833 984.871 317.9 990.338 317.9C994.005 317.9 997.455 318.333 1000.69 319.2C1003.92 320.033 1006.89 321.233 1009.59 322.8C1012.29 324.333 1014.7 326.217 1016.84 328.45C1019 330.65 1020.84 333.117 1022.34 335.85C1023.84 338.583 1024.97 341.55 1025.74 344.75C1026.54 347.95 1026.94 351.317 1026.94 354.85ZM1013.19 354.85C1013.19 350.883 1012.65 347.333 1011.59 344.2C1010.52 341.033 1009 338.35 1007.04 336.15C1005.07 333.95 1002.67 332.267 999.838 331.1C997.038 329.933 993.871 329.35 990.338 329.35C986.805 329.35 983.621 329.933 980.788 331.1C977.988 332.267 975.588 333.95 973.588 336.15C971.621 338.35 970.105 341.033 969.038 344.2C967.971 347.333 967.438 350.883 967.438 354.85C967.438 358.817 967.971 362.383 969.038 365.55C970.105 368.683 971.621 371.35 973.588 373.55C975.588 375.717 977.988 377.383 980.788 378.55C983.621 379.717 986.805 380.3 990.338 380.3C993.871 380.3 997.038 379.717 999.838 378.55C1002.67 377.383 1005.07 375.717 1007.04 373.55C1009 371.35 1010.52 368.683 1011.59 365.55C1012.65 362.383 1013.19 358.817 1013.19 354.85ZM1110.7 318.7V391H1103.8C1102.73 391 1101.83 390.833 1101.1 390.5C1100.4 390.133 1099.72 389.533 1099.05 388.7L1061.3 340.5C1061.5 342.7 1061.6 344.733 1061.6 346.6V391H1049.75V318.7H1056.8C1057.37 318.7 1057.85 318.733 1058.25 318.8C1058.68 318.833 1059.05 318.933 1059.35 319.1C1059.68 319.233 1060 319.45 1060.3 319.75C1060.6 320.017 1060.93 320.383 1061.3 320.85L1099.2 369.25C1099.1 368.083 1099.02 366.933 1098.95 365.8C1098.88 364.667 1098.85 363.617 1098.85 362.65V318.7H1110.7ZM1176.3 331.85C1175.9 332.55 1175.47 333.067 1175 333.4C1174.57 333.7 1174.02 333.85 1173.35 333.85C1172.65 333.85 1171.88 333.6 1171.05 333.1C1170.25 332.567 1169.28 331.983 1168.15 331.35C1167.02 330.717 1165.68 330.15 1164.15 329.65C1162.65 329.117 1160.87 328.85 1158.8 328.85C1156.93 328.85 1155.3 329.083 1153.9 329.55C1152.5 329.983 1151.32 330.6 1150.35 331.4C1149.42 332.2 1148.72 333.167 1148.25 334.3C1147.78 335.4 1147.55 336.617 1147.55 337.95C1147.55 339.65 1148.02 341.067 1148.95 342.2C1149.92 343.333 1151.18 344.3 1152.75 345.1C1154.32 345.9 1156.1 346.617 1158.1 347.25C1160.1 347.883 1162.15 348.567 1164.25 349.3C1166.35 350 1168.4 350.833 1170.4 351.8C1172.4 352.733 1174.18 353.933 1175.75 355.4C1177.32 356.833 1178.57 358.6 1179.5 360.7C1180.47 362.8 1180.95 365.35 1180.95 368.35C1180.95 371.617 1180.38 374.683 1179.25 377.55C1178.15 380.383 1176.52 382.867 1174.35 385C1172.22 387.1 1169.6 388.767 1166.5 390C1163.4 391.2 1159.85 391.8 1155.85 391.8C1153.55 391.8 1151.28 391.567 1149.05 391.1C1146.82 390.667 1144.67 390.033 1142.6 389.2C1140.57 388.367 1138.65 387.367 1136.85 386.2C1135.05 385.033 1133.45 383.733 1132.05 382.3L1136 375.85C1136.33 375.383 1136.77 375 1137.3 374.7C1137.83 374.367 1138.4 374.2 1139 374.2C1139.83 374.2 1140.73 374.55 1141.7 375.25C1142.67 375.917 1143.82 376.667 1145.15 377.5C1146.48 378.333 1148.03 379.1 1149.8 379.8C1151.6 380.467 1153.75 380.8 1156.25 380.8C1160.08 380.8 1163.05 379.9 1165.15 378.1C1167.25 376.267 1168.3 373.65 1168.3 370.25C1168.3 368.35 1167.82 366.8 1166.85 365.6C1165.92 364.4 1164.67 363.4 1163.1 362.6C1161.53 361.767 1159.75 361.067 1157.75 360.5C1155.75 359.933 1153.72 359.317 1151.65 358.65C1149.58 357.983 1147.55 357.183 1145.55 356.25C1143.55 355.317 1141.77 354.1 1140.2 352.6C1138.63 351.1 1137.37 349.233 1136.4 347C1135.47 344.733 1135 341.95 1135 338.65C1135 336.017 1135.52 333.45 1136.55 330.95C1137.62 328.45 1139.15 326.233 1141.15 324.3C1143.15 322.367 1145.62 320.817 1148.55 319.65C1151.48 318.483 1154.85 317.9 1158.65 317.9C1162.92 317.9 1166.85 318.567 1170.45 319.9C1174.05 321.233 1177.12 323.1 1179.65 325.5L1176.3 331.85ZM1254.85 357.2C1252.18 358.933 1250.23 360.9 1249 363.1C1247.8 365.267 1247.2 367.6 1247.2 370.1C1247.2 371.933 1247.52 373.583 1248.15 375.05C1248.78 376.517 1249.63 377.767 1250.7 378.8C1251.8 379.8 1253.07 380.583 1254.5 381.15C1255.97 381.683 1257.52 381.95 1259.15 381.95C1262.08 381.95 1264.77 381.5 1267.2 380.6C1269.63 379.667 1271.83 378.383 1273.8 376.75L1254.85 357.2ZM1303 391H1290.9C1289.63 391 1288.6 390.85 1287.8 390.55C1287.03 390.25 1286.22 389.617 1285.35 388.65L1280.35 383.5C1277.18 386.1 1273.63 388.133 1269.7 389.6C1265.77 391.067 1261.52 391.8 1256.95 391.8C1254.18 391.8 1251.45 391.333 1248.75 390.4C1246.08 389.433 1243.7 388.05 1241.6 386.25C1239.5 384.45 1237.8 382.283 1236.5 379.75C1235.23 377.183 1234.6 374.3 1234.6 371.1C1234.6 368.833 1234.97 366.7 1235.7 364.7C1236.43 362.667 1237.45 360.783 1238.75 359.05C1240.05 357.317 1241.6 355.767 1243.4 354.4C1245.2 353 1247.17 351.8 1249.3 350.8C1247.5 348.3 1246.2 345.867 1245.4 343.5C1244.6 341.1 1244.2 338.717 1244.2 336.35C1244.2 333.85 1244.65 331.483 1245.55 329.25C1246.48 326.983 1247.82 325.017 1249.55 323.35C1251.28 321.683 1253.42 320.367 1255.95 319.4C1258.48 318.4 1261.35 317.9 1264.55 317.9C1267.48 317.9 1270.1 318.35 1272.4 319.25C1274.73 320.15 1276.72 321.35 1278.35 322.85C1280.02 324.35 1281.32 326.067 1282.25 328C1283.22 329.933 1283.78 331.933 1283.95 334L1276.1 335.65C1274.63 335.95 1273.57 335.317 1272.9 333.75C1272.6 332.883 1272.2 332.067 1271.7 331.3C1271.23 330.5 1270.67 329.817 1270 329.25C1269.33 328.65 1268.55 328.183 1267.65 327.85C1266.75 327.483 1265.72 327.3 1264.55 327.3C1263.15 327.3 1261.9 327.55 1260.8 328.05C1259.7 328.517 1258.77 329.167 1258 330C1257.27 330.8 1256.7 331.75 1256.3 332.85C1255.9 333.917 1255.7 335.05 1255.7 336.25C1255.7 337.25 1255.8 338.217 1256 339.15C1256.2 340.083 1256.53 341.017 1257 341.95C1257.47 342.883 1258.07 343.85 1258.8 344.85C1259.57 345.817 1260.5 346.867 1261.6 348L1280.8 367.95C1281.9 365.85 1282.78 363.633 1283.45 361.3C1284.12 358.967 1284.55 356.6 1284.75 354.2C1284.85 353.433 1285.12 352.817 1285.55 352.35C1285.98 351.883 1286.58 351.65 1287.35 351.65H1295.05C1295.02 356.05 1294.38 360.25 1293.15 364.25C1291.92 368.25 1290.15 371.933 1287.85 375.3L1303 391ZM1396.18 331.85C1395.78 332.55 1395.35 333.067 1394.88 333.4C1394.45 333.7 1393.9 333.85 1393.23 333.85C1392.53 333.85 1391.76 333.6 1390.93 333.1C1390.13 332.567 1389.16 331.983 1388.03 331.35C1386.9 330.717 1385.56 330.15 1384.03 329.65C1382.53 329.117 1380.75 328.85 1378.68 328.85C1376.81 328.85 1375.18 329.083 1373.78 329.55C1372.38 329.983 1371.2 330.6 1370.23 331.4C1369.3 332.2 1368.6 333.167 1368.13 334.3C1367.66 335.4 1367.43 336.617 1367.43 337.95C1367.43 339.65 1367.9 341.067 1368.83 342.2C1369.8 343.333 1371.06 344.3 1372.63 345.1C1374.2 345.9 1375.98 346.617 1377.98 347.25C1379.98 347.883 1382.03 348.567 1384.13 349.3C1386.23 350 1388.28 350.833 1390.28 351.8C1392.28 352.733 1394.06 353.933 1395.63 355.4C1397.2 356.833 1398.45 358.6 1399.38 360.7C1400.35 362.8 1400.83 365.35 1400.83 368.35C1400.83 371.617 1400.26 374.683 1399.13 377.55C1398.03 380.383 1396.4 382.867 1394.23 385C1392.1 387.1 1389.48 388.767 1386.38 390C1383.28 391.2 1379.73 391.8 1375.73 391.8C1373.43 391.8 1371.16 391.567 1368.93 391.1C1366.7 390.667 1364.55 390.033 1362.48 389.2C1360.45 388.367 1358.53 387.367 1356.73 386.2C1354.93 385.033 1353.33 383.733 1351.93 382.3L1355.88 375.85C1356.21 375.383 1356.65 375 1357.18 374.7C1357.71 374.367 1358.28 374.2 1358.88 374.2C1359.71 374.2 1360.61 374.55 1361.58 375.25C1362.55 375.917 1363.7 376.667 1365.03 377.5C1366.36 378.333 1367.91 379.1 1369.68 379.8C1371.48 380.467 1373.63 380.8 1376.13 380.8C1379.96 380.8 1382.93 379.9 1385.03 378.1C1387.13 376.267 1388.18 373.65 1388.18 370.25C1388.18 368.35 1387.7 366.8 1386.73 365.6C1385.8 364.4 1384.55 363.4 1382.98 362.6C1381.41 361.767 1379.63 361.067 1377.63 360.5C1375.63 359.933 1373.6 359.317 1371.53 358.65C1369.46 357.983 1367.43 357.183 1365.43 356.25C1363.43 355.317 1361.65 354.1 1360.08 352.6C1358.51 351.1 1357.25 349.233 1356.28 347C1355.35 344.733 1354.88 341.95 1354.88 338.65C1354.88 336.017 1355.4 333.45 1356.43 330.95C1357.5 328.45 1359.03 326.233 1361.03 324.3C1363.03 322.367 1365.5 320.817 1368.43 319.65C1371.36 318.483 1374.73 317.9 1378.53 317.9C1382.8 317.9 1386.73 318.567 1390.33 319.9C1393.93 321.233 1397 323.1 1399.53 325.5L1396.18 331.85ZM1452.66 380.15C1455.26 380.15 1457.58 379.717 1459.61 378.85C1461.68 377.983 1463.41 376.767 1464.81 375.2C1466.21 373.633 1467.28 371.733 1468.01 369.5C1468.78 367.267 1469.16 364.767 1469.16 362V318.7H1482.61V362C1482.61 366.3 1481.91 370.283 1480.51 373.95C1479.15 377.583 1477.16 380.733 1474.56 383.4C1472 386.033 1468.86 388.1 1465.16 389.6C1461.46 391.067 1457.3 391.8 1452.66 391.8C1448 391.8 1443.81 391.067 1440.11 389.6C1436.41 388.1 1433.26 386.033 1430.66 383.4C1428.1 380.733 1426.11 377.583 1424.71 373.95C1423.35 370.283 1422.66 366.3 1422.66 362V318.7H1436.11V361.95C1436.11 364.717 1436.48 367.217 1437.21 369.45C1437.98 371.683 1439.06 373.6 1440.46 375.2C1441.9 376.767 1443.63 377.983 1445.66 378.85C1447.73 379.717 1450.06 380.15 1452.66 380.15ZM1532.28 355.05C1534.75 355.05 1536.9 354.75 1538.73 354.15C1540.56 353.517 1542.08 352.633 1543.28 351.5C1544.51 350.333 1545.43 348.933 1546.03 347.3C1546.63 345.633 1546.93 343.783 1546.93 341.75C1546.93 339.817 1546.63 338.067 1546.03 336.5C1545.43 334.933 1544.53 333.6 1543.33 332.5C1542.13 331.4 1540.61 330.567 1538.78 330C1536.95 329.4 1534.78 329.1 1532.28 329.1H1522.23V355.05H1532.28ZM1532.28 318.7C1537.11 318.7 1541.3 319.267 1544.83 320.4C1548.36 321.533 1551.28 323.117 1553.58 325.15C1555.88 327.183 1557.58 329.617 1558.68 332.45C1559.81 335.283 1560.38 338.383 1560.38 341.75C1560.38 345.25 1559.8 348.467 1558.63 351.4C1557.46 354.3 1555.71 356.8 1553.38 358.9C1551.05 361 1548.11 362.633 1544.58 363.8C1541.08 364.967 1536.98 365.55 1532.28 365.55H1522.23V391H1508.78V318.7H1532.28ZM1605.2 355.05C1607.66 355.05 1609.81 354.75 1611.65 354.15C1613.48 353.517 1615 352.633 1616.2 351.5C1617.43 350.333 1618.35 348.933 1618.95 347.3C1619.55 345.633 1619.85 343.783 1619.85 341.75C1619.85 339.817 1619.55 338.067 1618.95 336.5C1618.35 334.933 1617.45 333.6 1616.25 332.5C1615.05 331.4 1613.53 330.567 1611.7 330C1609.86 329.4 1607.7 329.1 1605.2 329.1H1595.15V355.05H1605.2ZM1605.2 318.7C1610.03 318.7 1614.21 319.267 1617.75 320.4C1621.28 321.533 1624.2 323.117 1626.5 325.15C1628.8 327.183 1630.5 329.617 1631.6 332.45C1632.73 335.283 1633.3 338.383 1633.3 341.75C1633.3 345.25 1632.71 348.467 1631.55 351.4C1630.38 354.3 1628.63 356.8 1626.3 358.9C1623.96 361 1621.03 362.633 1617.5 363.8C1614 364.967 1609.9 365.55 1605.2 365.55H1595.15V391H1581.7V318.7H1605.2ZM1723.56 354.85C1723.56 360.15 1722.68 365.067 1720.91 369.6C1719.18 374.1 1716.71 378 1713.51 381.3C1710.31 384.6 1706.46 387.183 1701.96 389.05C1697.46 390.883 1692.46 391.8 1686.96 391.8C1681.49 391.8 1676.51 390.883 1672.01 389.05C1667.51 387.183 1663.64 384.6 1660.41 381.3C1657.21 378 1654.73 374.1 1652.96 369.6C1651.19 365.067 1650.31 360.15 1650.31 354.85C1650.31 349.55 1651.19 344.65 1652.96 340.15C1654.73 335.617 1657.21 331.7 1660.41 328.4C1663.64 325.1 1667.51 322.533 1672.01 320.7C1676.51 318.833 1681.49 317.9 1686.96 317.9C1690.63 317.9 1694.08 318.333 1697.31 319.2C1700.54 320.033 1703.51 321.233 1706.21 322.8C1708.91 324.333 1711.33 326.217 1713.46 328.45C1715.63 330.65 1717.46 333.117 1718.96 335.85C1720.46 338.583 1721.59 341.55 1722.36 344.75C1723.16 347.95 1723.56 351.317 1723.56 354.85ZM1709.81 354.85C1709.81 350.883 1709.28 347.333 1708.21 344.2C1707.14 341.033 1705.63 338.35 1703.66 336.15C1701.69 333.95 1699.29 332.267 1696.46 331.1C1693.66 329.933 1690.49 329.35 1686.96 329.35C1683.43 329.35 1680.24 329.933 1677.41 331.1C1674.61 332.267 1672.21 333.95 1670.21 336.15C1668.24 338.35 1666.73 341.033 1665.66 344.2C1664.59 347.333 1664.06 350.883 1664.06 354.85C1664.06 358.817 1664.59 362.383 1665.66 365.55C1666.73 368.683 1668.24 371.35 1670.21 373.55C1672.21 375.717 1674.61 377.383 1677.41 378.55C1680.24 379.717 1683.43 380.3 1686.96 380.3C1690.49 380.3 1693.66 379.717 1696.46 378.55C1699.29 377.383 1701.69 375.717 1703.66 373.55C1705.63 371.35 1707.14 368.683 1708.21 365.55C1709.28 362.383 1709.81 358.817 1709.81 354.85ZM1768.22 353.1C1770.75 353.1 1772.95 352.783 1774.82 352.15C1776.72 351.517 1778.27 350.65 1779.47 349.55C1780.7 348.417 1781.62 347.083 1782.22 345.55C1782.82 344.017 1783.12 342.333 1783.12 340.5C1783.12 336.833 1781.9 334.017 1779.47 332.05C1777.07 330.083 1773.39 329.1 1768.42 329.1H1759.82V353.1H1768.22ZM1802.82 391H1790.67C1788.37 391 1786.7 390.1 1785.67 388.3L1770.47 365.15C1769.9 364.283 1769.27 363.667 1768.57 363.3C1767.9 362.933 1766.9 362.75 1765.57 362.75H1759.82V391H1746.37V318.7H1768.42C1773.32 318.7 1777.52 319.217 1781.02 320.25C1784.55 321.25 1787.44 322.667 1789.67 324.5C1791.94 326.333 1793.6 328.533 1794.67 331.1C1795.74 333.633 1796.27 336.433 1796.27 339.5C1796.27 341.933 1795.9 344.233 1795.17 346.4C1794.47 348.567 1793.44 350.533 1792.07 352.3C1790.74 354.067 1789.07 355.617 1787.07 356.95C1785.1 358.283 1782.85 359.333 1780.32 360.1C1781.19 360.6 1781.99 361.2 1782.72 361.9C1783.45 362.567 1784.12 363.367 1784.72 364.3L1802.82 391ZM1870.27 329.75H1848.47V391H1835.02V329.75H1813.22V318.7H1870.27V329.75Z" fill="white" fill-opacity="0.6"/>
<path d="M240.35 189.019C241.59 189.829 243.039 190.26 244.52 190.26C246.001 190.26 247.45 189.829 248.689 189.019C348.779 123.668 350.239 68.6271 346.218 47.9939C338.02 0.574578 275.5 -16.8514 244.519 20.6384C176.195 -49.2398 55.1163 71.2452 240.35 189.019ZM157.757 50.8948C159.609 40.9498 164.871 31.9597 172.637 25.4689C180.403 18.9781 190.19 15.3918 200.315 15.3262C207.97 15.5073 215.454 17.6221 222.069 21.4732C228.684 25.3244 234.215 30.7865 238.146 37.3501C238.883 38.3466 239.843 39.1564 240.95 39.7145C242.057 40.2726 243.279 40.5633 244.519 40.5633C245.759 40.5633 246.982 40.2726 248.089 39.7145C249.196 39.1564 250.156 38.3466 250.893 37.3501C255.324 29.6724 262 23.5328 270.026 19.7557C278.051 15.9787 287.041 14.745 295.789 16.2204C304.536 17.6957 312.622 21.8095 318.962 28.0093C325.301 34.2091 329.59 42.1981 331.252 50.9035C334.625 68.2402 332.756 114.527 244.519 173.511C156.26 114.527 154.384 68.2328 157.757 50.8948Z" fill="#E74A30"/>
<path d="M73.4141 226.046L5.10117 292.951C3.65977 294.365 2.51349 296.05 1.72873 297.91C0.943965 299.769 0.536315 301.766 0.529387 303.784C0.522459 305.802 0.916393 307.801 1.68837 309.666C2.46035 311.531 3.59502 313.224 5.02668 314.648L77.0025 386.551C79.8648 389.387 83.7284 390.985 87.7595 391C91.7906 391.015 95.6662 389.447 98.55 386.633L118.69 366.87C200.829 366.23 255.241 366.022 272.999 366.892C281.471 367.392 289.96 366.266 298.008 363.575C307.712 360.227 316.492 354.644 323.636 347.278L423.696 231.275C425.521 229.171 426.742 226.613 427.231 223.873C427.72 221.132 427.458 218.311 426.473 215.707C425.367 212.918 423.556 210.463 421.218 208.581C418.88 206.699 416.094 205.454 413.131 204.966C407.111 203.649 400.87 203.714 394.879 205.157C388.888 206.6 383.304 209.384 378.546 213.297L293.139 282.745C287.287 287.5 279.976 290.098 272.433 290.102H203.852C194.501 291.759 192.28 282.073 198.149 274.831C199.572 273.453 201.318 272.452 203.227 271.921C205.136 271.39 207.148 271.344 209.079 271.789C232.791 275.453 271.789 276.342 284.384 256.587C297.156 235.476 276.504 204.202 246.79 210.627C225.378 214.57 203.359 213.742 182.305 208.202C165.117 197.336 144.535 193.151 124.463 196.44C104.392 199.729 86.2264 210.264 73.4141 226.046ZM176.356 222.275C200.362 229.081 225.629 230.176 250.134 225.473C254.04 224.542 258.141 224.866 261.852 226.399C265.564 227.932 268.696 230.596 270.803 234.012C277.792 251.49 266.089 255.835 247.008 257.702C227.758 262.903 201.419 247.948 186.557 264.931C172.278 280.624 181.748 308.157 204.286 305.335H272.434C283.483 305.326 294.193 301.521 302.767 294.558L388.174 225.109C391.089 222.694 394.507 220.959 398.177 220.03C401.848 219.101 405.68 219.002 409.394 219.739C410.397 219.881 412.406 220.473 412.074 221.412L312.415 336.976C307.305 341.957 301.221 345.833 294.544 348.36C287.867 350.887 280.741 352.013 273.609 351.665C255.323 350.774 201.797 350.99 115.489 351.659C113.509 351.673 111.613 352.457 110.203 353.846L87.7766 375.773L15.7784 303.825L84.5005 236.518C95.2425 223.082 110.642 214.162 127.651 211.525C144.661 208.887 162.042 212.723 176.356 222.275Z" fill="white"/>
<path d="M240.374 189.019C241.613 189.829 243.062 190.26 244.543 190.26C246.024 190.26 247.473 189.829 248.713 189.019C348.803 123.668 350.262 68.6271 346.242 47.9939C338.044 0.574578 275.524 -16.8514 244.543 20.6384C176.219 -49.2398 55.1398 71.2452 240.374 189.019ZM157.781 50.8948C159.633 40.9498 164.894 31.9597 172.66 25.4689C180.427 18.9781 190.213 15.3918 200.339 15.3262C207.993 15.5073 215.477 17.6221 222.092 21.4732C228.707 25.3244 234.238 30.7865 238.17 37.3501C238.906 38.3466 239.866 39.1564 240.973 39.7145C242.08 40.2726 243.303 40.5633 244.543 40.5633C245.783 40.5633 247.005 40.2726 248.112 39.7145C249.219 39.1564 250.18 38.3466 250.916 37.3501C255.347 29.6724 262.024 23.5328 270.049 19.7557C278.074 15.9787 287.064 14.745 295.812 16.2204C304.56 17.6957 312.646 21.8095 318.985 28.0093C325.324 34.2091 329.613 42.1981 331.275 50.9035C334.648 68.2402 332.78 114.527 244.542 173.511C156.284 114.527 154.408 68.2328 157.781 50.8948Z" fill="#427EA3"/>
<mask id="mask0_83_13" style="mask-type:alpha" maskUnits="userSpaceOnUse" x="142" y="0" width="206" height="191">
<path d="M240.374 189.019C241.613 189.829 243.062 190.26 244.543 190.26C246.024 190.26 247.473 189.829 248.713 189.019C348.803 123.668 350.262 68.6271 346.242 47.9939C338.044 0.574578 275.524 -16.8514 244.543 20.6384C176.219 -49.2398 55.1398 71.2452 240.374 189.019ZM157.781 50.8948C159.633 40.9498 164.894 31.9597 172.66 25.4689C180.427 18.9781 190.213 15.3918 200.339 15.3262C207.993 15.5073 215.477 17.6221 222.092 21.4732C228.707 25.3244 234.238 30.7865 238.17 37.3501C238.906 38.3466 239.866 39.1564 240.973 39.7145C242.08 40.2726 243.303 40.5633 244.543 40.5633C245.783 40.5633 247.005 40.2726 248.112 39.7145C249.219 39.1564 250.18 38.3466 250.916 37.3501C255.347 29.6724 262.024 23.5328 270.049 19.7557C278.074 15.9787 287.064 14.745 295.812 16.2204C304.56 17.6957 312.646 21.8095 318.985 28.0093C325.324 34.2091 329.613 42.1981 331.275 50.9035C334.648 68.2402 332.78 114.527 244.542 173.511C156.284 114.527 154.408 68.2328 157.781 50.8948Z" fill="#E3C71F"/>
</mask>
<g mask="url(#mask0_83_13)">
<rect x="114.889" y="100.201" width="271.195" height="135.053" fill="#E3C71F"/>
</g>
</svg>
